<svg xmlns="http://www.w3.org/2000/svg" viewBox="0 0 234.39 232.95"><defs><style>.cls-1{fill:none;stroke:#30302d;stroke-miterlimit:10;stroke-width:3px;}</style></defs><g id="Layer_2" data-name="Layer 2"><g id="Layer_1-2" data-name="Layer 1"><path class="cls-1" d="M85.94,84.67l-.2.08a10.4,10.4,0,0,1-5.4.8,10.6,10.6,0,1,1,5.6-.88Zm66.28,8H152a9,9,0,0,1-4.52-1.39,9.19,9.19,0,1,1,4.7,1.4Z"/><path class="cls-1" d="M189,141.29l21.45,10.19a10,10,0,0,0-1.08,5.1l-17.66.73c0,.44.07.88.1,1.32.62,9.75-3.06,15.28-8.79,19.56-10.45,7.82-27.24-1.71-36.91,7.17a15.2,15.2,0,0,0-1.41,1.48l-.12,23.47a10.45,10.45,0,0,0-5.29,1.24l-7.8-15h0a6.45,6.45,0,0,1-3.36-.74c-19.83-10.92-26.92-3.27-39.59-3.78h0L77.13,208.9a4.6,4.6,0,0,0-2.36-.9l1.93-17.67a19.76,19.76,0,0,1-7.7-4c-4.58-4-6.77-10.33-11.15-14.53A21.48,21.48,0,0,0,55,169.6L31,183.17a10.67,10.67,0,0,0-3.8-4.11L40.6,158.22c-2.22-6.35,1-16.22.18-23-1.15-10-8.34-16.25-9.5-26.21a42.35,42.35,0,0,1-.05-12.21L17.61,85.9a7.56,7.56,0,0,0,1.7-3.58l20.84,4h0c3.61-1.22,7.62-1.69,10.77-3.93,6.92-4.94,6.61-15.5,8.58-24.08a35.07,35.07,0,0,1,5.84-12.7L59.17,30.93a6.7,6.7,0,0,0,2.77-2l10.93,9A35.2,35.2,0,0,1,82,32.76c11.45-4.3,19.61-.78,29.05,4.12L122.75,16.1a7.82,7.82,0,0,0,4.15,1.18,8.46,8.46,0,0,0,.87-.05L127,44.29a17.45,17.45,0,0,0,6,.67c4.82-.37,9.62-3.16,14.26-1.72,7.5,2.33,8.85,13.53,15.42,18,7.6,5.19,20.09,0,25.3,7.86,3.34,5,1,11.57.57,17.84l23.3-4.29a10.31,10.31,0,0,0,2.22,5l-19.56,15.4a27.64,27.64,0,0,1,1.9,3.51c3.33,7.52-5.69,18-7.17,26.18A29.05,29.05,0,0,0,189,141.29Z"/><line class="cls-1" x1="126.97" y1="44.29" x2="126.76" y2="51.62"/><line class="cls-1" x1="111.02" y1="36.88" x2="106.05" y2="45.67"/><path class="cls-1" d="M134.79,9.39a7.88,7.88,0,0,1-7,7.84,8.46,8.46,0,0,1-.87.05,7.89,7.89,0,1,1,7.89-7.89Z"/><line class="cls-1" x1="55.33" y1="89.19" x2="40.16" y2="86.29"/><line class="cls-1" x1="46.18" y1="108.69" x2="31.23" y2="96.77"/><path class="cls-1" d="M19.33,82.2s0,.08,0,.12a7.51,7.51,0,1,1,0-.12Z"/><line class="cls-1" x1="131.45" y1="196.57" x2="123.81" y2="181.89"/><line class="cls-1" x1="144.72" y1="177" x2="144.67" y2="186.84"/><path class="cls-1" d="M149.38,230.11a10.57,10.57,0,1,1-10.31-18.46l.19-.1a10.55,10.55,0,0,1,14.19,4.17A10.57,10.57,0,0,1,149.38,230.11Z"/><line class="cls-1" x1="45.8" y1="150.16" x2="40.6" y2="158.22"/><line class="cls-1" x1="60.81" y1="166.35" x2="55.04" y2="169.6"/><path class="cls-1" d="M30.65,193.88A10.88,10.88,0,1,1,27,178.94a1.88,1.88,0,0,1,.18.12,10.67,10.67,0,0,1,3.8,4.11A10.84,10.84,0,0,1,30.65,193.88Z"/><line class="cls-1" x1="77.48" y1="183.22" x2="76.7" y2="190.33"/><line class="cls-1" x1="91.02" y1="188.31" x2="88.5" y2="192.05"/><path class="cls-1" d="M79,213.1A4.74,4.74,0,1,1,74.7,208h.07a4.6,4.6,0,0,1,2.36.9A4.74,4.74,0,0,1,79,213.1Z"/><line class="cls-1" x1="191.68" y1="157.31" x2="177.42" y2="157.9"/><line class="cls-1" x1="188.97" y1="141.29" x2="181.68" y2="137.83"/><path class="cls-1" d="M220.15,166.14a10.12,10.12,0,0,1-10.8-9.37,1.21,1.21,0,0,1,0-.19,10,10,0,0,1,1.08-5.1,10.11,10.11,0,1,1,9.73,14.66Z"/><line class="cls-1" x1="194.45" y1="103.05" x2="187.64" y2="108.41"/><line class="cls-1" x1="188.49" y1="86.95" x2="178.92" y2="88.71"/><path class="cls-1" d="M229.08,89.15a10.62,10.62,0,0,1-15-1.33.66.66,0,0,1-.12-.17,10.31,10.31,0,0,1-2.22-5,10.61,10.61,0,1,1,17.29,6.49Z"/><line class="cls-1" x1="98.74" y1="115.69" x2="85.74" y2="84.75"/><line class="cls-1" x1="80.34" y1="85.55" x2="77.43" y2="118.85"/><path class="cls-1" d="M85.94,84.67l-.2.08a10.4,10.4,0,0,1-5.4.8,10.6,10.6,0,1,1,5.6-.88Z"/><line class="cls-1" x1="152.04" y1="92.62" x2="150.62" y2="121.65"/><line class="cls-1" x1="147.52" y1="91.23" x2="132.79" y2="116.15"/><path class="cls-1" d="M161.59,83.62a9.19,9.19,0,0,1-9.37,9H152a9,9,0,0,1-4.52-1.39,9.19,9.19,0,1,1,14.07-7.61Z"/><line class="cls-1" x1="114.7" y1="131.58" x2="103.19" y2="157.2"/><line class="cls-1" x1="128.8" y1="142.81" x2="106.76" y2="160.05"/><path class="cls-1" d="M107.83,168.73a8.88,8.88,0,1,1-4.8-11.6l.16.07a8.7,8.7,0,0,1,3.57,2.85A8.84,8.84,0,0,1,107.83,168.73Z"/><line class="cls-1" x1="79.8" y1="43.53" x2="72.87" y2="37.85"/><line class="cls-1" x1="68.11" y1="52.12" x2="65.35" y2="45.58"/><path class="cls-1" d="M62,28.79l-.08.1a6.6,6.6,0,1,1,.08-.1Z"/><path class="cls-1" d="M114.49,85.44l7.12-15.86c.2-.44,1-.44,1.07,0l2.8,15.92"/><path class="cls-1" d="M151.13,148.15l5.53,17.18c.16.48-.45,1-.82.74l-13.21-10.33"/><path class="cls-1" d="M82,145.55l-18,1.87c-.5.05-.91-.66-.56-1l12.84-10.8"/><line class="cls-1" x1="84.84" y1="17.33" x2="79.8" y2="1.45"/><line class="cls-1" x1="41.38" y1="57.17" x2="28.11" y2="47.08"/><line class="cls-1" x1="14.45" y1="109.73" x2="0.05" y2="109.21"/><line class="cls-1" x1="26.36" y1="139.69" x2="12.49" y2="143.54"/><line class="cls-1" x1="51.51" y1="192.02" x2="44.02" y2="201.15"/><line class="cls-1" x1="109.35" y1="205.72" x2="108.12" y2="222.35"/><line class="cls-1" x1="173.21" y1="214.03" x2="165.98" y2="201.98"/><line class="cls-1" x1="200.72" y1="189.96" x2="193.45" y2="183.54"/><line class="cls-1" x1="224.42" y1="126.52" x2="207.84" y2="124.69"/><line class="cls-1" x1="223.43" y1="53.36" x2="208.83" y2="61.41"/><line class="cls-1" x1="188.61" y1="36.15" x2="175.56" y2="49.88"/><line class="cls-1" x1="163.59" y1="12.17" x2="156.84" y2="26.02"/></g></g></svg>